<svg xmlns="http://www.w3.org/2000/svg" viewBox="0 0 22 31" width="22" height="31">
	<style>
		tspan { white-space:pre }
		.shp0 { fill: #e74c3c } 
	</style>
	<g id="Header">
		<g id="Slider">
			<g id="Down Icon">
				<path id="Forma 1" class="shp0" d="M21.89 17.3L19.38 13.52C19.26 13.34 19.06 13.23 18.85 13.23C18.64 13.23 18.44 13.34 18.32 13.52L15.81 17.3C15.68 17.5 15.66 17.76 15.77 17.97C15.89 18.18 16.1 18.32 16.34 18.32L17.58 18.32C17.04 20.57 14.83 22.37 12.5 22.93L12.5 8.47L14.49 8.47C15.04 8.47 15.49 8.01 15.49 7.45C15.49 6.89 15.04 6.43 14.49 6.43L13.46 6.43C14.18 5.75 14.64 4.79 14.64 3.71C14.64 1.66 13.01 0 11 0C8.99 0 7.36 1.66 7.36 3.71C7.36 4.79 7.82 5.75 8.54 6.43L7.51 6.43C6.96 6.43 6.51 6.89 6.51 7.45C6.51 8.01 6.96 8.47 7.51 8.47L9.5 8.47L9.5 22.93C7.17 22.37 4.95 20.57 4.42 18.32L5.66 18.32C5.9 18.32 6.11 18.18 6.23 17.97C6.34 17.76 6.32 17.5 6.19 17.3L3.68 13.52C3.56 13.34 3.36 13.23 3.15 13.23C2.94 13.23 2.74 13.34 2.62 13.52L0.11 17.3C-0.02 17.5 -0.04 17.76 0.07 17.97C0.18 18.18 0.4 18.32 0.64 18.32L1.99 18.32C2.49 21.81 5.45 25.38 8.77 26.56L8.52 26.87C8.34 27.09 8.33 27.4 8.48 27.64L10.46 30.7C10.58 30.89 10.78 31 11 31C11.22 31 11.42 30.89 11.54 30.7L13.52 27.64C13.67 27.4 13.66 27.09 13.48 26.87L13.23 26.56C16.55 25.38 19.51 21.81 20.01 18.32L21.36 18.32C21.6 18.32 21.81 18.18 21.93 17.97C22.04 17.76 22.02 17.5 21.89 17.3ZM11 2.03C11.91 2.03 12.64 2.79 12.64 3.71C12.64 4.64 11.91 5.39 11 5.39C10.09 5.39 9.36 4.64 9.36 3.71C9.36 2.79 10.09 2.03 11 2.03Z" />
			</g>
		</g>
	</g>
</svg>