<svg xmlns="http://www.w3.org/2000/svg" viewBox="0 0 27 22" width="27" height="22">
	<style>
		tspan { white-space:pre }
		.shp0 { fill: #e74c3c } 
	</style>
	<g id="Services">
		<g id="1">
			<g id="Down Icon copy">
				<path id="Forma 1" class="shp0" d="M20.62 21.12L15.43 21.12L15.43 19.21C15.43 18.97 15.23 18.77 14.98 18.77C14.74 18.77 14.54 18.97 14.54 19.21L14.54 21.12L12.46 21.12L12.46 19.21C12.46 18.97 12.26 18.77 12.02 18.77C11.77 18.77 11.57 18.97 11.57 19.21L11.57 21.12L6.38 21.12C6.13 21.12 5.93 21.32 5.93 21.56C5.93 21.8 6.13 22 6.38 22L20.62 22C20.87 22 21.07 21.8 21.07 21.56C21.07 21.32 20.87 21.12 20.62 21.12ZM25.96 0L1.04 0C0.47 0 0 0.46 0 1.03L0 16.87C0 17.43 0.47 17.89 1.04 17.89L20.77 17.89L20.77 18.04C20.77 18.28 20.97 18.48 21.21 18.48C21.46 18.48 21.66 18.28 21.66 18.04L21.66 17.89L22.55 17.89L22.55 18.04C22.55 18.28 22.75 18.48 22.99 18.48C23.24 18.48 23.44 18.28 23.44 18.04L23.44 17.89L24.33 17.89L24.33 18.04C24.33 18.28 24.53 18.48 24.77 18.48C25.02 18.48 25.22 18.28 25.22 18.04L25.22 17.89L25.96 17.89C26.53 17.89 27 17.43 27 16.87L27 1.03C27 0.46 26.53 0 25.96 0ZM26.11 16.87C26.11 16.94 26.04 17.01 25.96 17.01L1.04 17.01C0.96 17.01 0.89 16.94 0.89 16.87L0.89 1.03C0.89 0.95 0.96 0.88 1.04 0.88L25.96 0.88C26.04 0.88 26.11 0.95 26.11 1.03L26.11 16.87ZM24.77 1.76L2.23 1.76C1.98 1.76 1.78 1.96 1.78 2.2C1.78 2.44 1.98 2.64 2.23 2.64L24.33 2.64L24.33 11.59C24.33 11.83 24.53 12.03 24.77 12.03C25.02 12.03 25.22 11.83 25.22 11.59L25.22 2.2C25.22 1.96 25.02 1.76 24.77 1.76ZM24.77 12.91C24.53 12.91 24.33 13.1 24.33 13.35L24.33 15.25L2.67 15.25L2.67 3.96C2.67 3.72 2.47 3.52 2.23 3.52C1.98 3.52 1.78 3.72 1.78 3.96L1.78 15.69C1.78 15.94 1.98 16.13 2.23 16.13L24.77 16.13C25.02 16.13 25.22 15.94 25.22 15.69L25.22 13.35C25.22 13.1 25.02 12.91 24.77 12.91Z" />
			</g>
		</g>
	</g>
</svg>