<svg xmlns="http://www.w3.org/2000/svg" viewBox="0 0 25 22" width="25" height="22">
	<style>
		tspan { white-space:pre }
		.shp0 { fill: #e74c3c } 
	</style>
	<g id="Services">
		<g id="3">
			<g id="Down Icon copy 3">
				<path id="Forma 1" class="shp0" d="M21.65 4.2L19.02 4.19L16.51 0.39C16.36 0.15 16.1 0 15.82 0L9.05 0C8.78 0 8.53 0.15 8.38 0.37L5.78 4.19L3.35 4.2C1.51 4.2 0 5.73 0 7.6L0 18.58C0 20.44 1.51 22 3.35 22L21.65 22C23.49 22 25 20.44 25 18.58L25 7.6C25 5.73 23.49 4.2 21.65 4.2ZM23.35 18.58C23.35 19.52 22.58 20.33 21.65 20.33L3.35 20.33C2.42 20.33 1.65 19.52 1.65 18.58L1.65 7.6C1.65 6.65 2.42 5.87 3.35 5.87L6.22 5.87C6.5 5.87 6.74 5.72 6.9 5.5L9.49 1.68L15.38 1.68L17.88 5.47C18.04 5.69 18.3 5.84 18.56 5.84L21.63 5.87C22.57 5.87 23.34 6.65 23.34 7.6L23.34 18.58L23.35 18.58L23.35 18.58ZM12.57 6.21C9.34 6.21 6.73 8.86 6.73 12.12C6.73 15.38 9.35 18.03 12.57 18.03C15.78 18.03 18.41 15.38 18.41 12.12C18.41 8.86 15.78 6.21 12.57 6.21ZM12.57 16.36C10.26 16.36 8.38 14.46 8.38 12.12C8.38 9.78 10.26 7.88 12.57 7.88C14.88 7.88 16.76 9.78 16.76 12.12C16.76 14.46 14.88 16.36 12.57 16.36ZM20.38 8.33C20.56 8.33 20.7 8.48 20.7 8.65C20.7 8.83 20.56 8.97 20.38 8.97C20.21 8.97 20.07 8.83 20.07 8.65C20.07 8.48 20.21 8.33 20.38 8.33ZM20.38 7.5C19.75 7.5 19.24 8.01 19.24 8.65C19.24 9.29 19.75 9.81 20.38 9.81C21.02 9.81 21.52 9.29 21.52 8.65C21.52 8.01 21.02 7.5 20.38 7.5ZM20.38 9.17C20.1 9.17 19.88 8.93 19.88 8.65C19.88 8.38 20.11 8.14 20.38 8.14C20.66 8.14 20.89 8.38 20.89 8.65C20.89 8.93 20.67 9.17 20.38 9.17Z" />
			</g>
		</g>
	</g>
</svg>