<svg xmlns="http://www.w3.org/2000/svg" viewBox="0 0 31 26" width="31" height="26">
	<style>
		tspan { white-space:pre }
		.shp0 { fill: #e74c3c } 
	</style>
	<g id="Services">
		<g id="2">
			<g id="Down Icon copy 2">
				<path id="Forma 1" class="shp0" d="M17.4 0C16.88 0 16.37 0.1 15.94 0.31L0.77 7.63C0.34 7.84 0 8.18 0 8.62C0 9.07 0.34 9.41 0.77 9.62L9.3 13.74C9.37 13.77 9.44 13.78 9.51 13.78L18.04 13.63C18.1 13.63 18.17 13.61 18.22 13.58L30.23 7.79C30.66 7.59 31 7.24 31 6.8C31 6.35 30.66 6.01 30.23 5.8L18.86 0.31C18.42 0.1 17.91 0 17.4 0ZM17.4 0.9C17.8 0.9 18.2 0.96 18.46 1.09L29.84 6.58C30.1 6.7 30.11 6.8 30.11 6.8C30.11 6.79 30.1 6.89 29.84 7.02L18.03 12.71L13.8 10.67C13.73 10.64 13.66 10.63 13.59 10.63C13.53 10.63 13.46 10.65 13.41 10.67L9.18 12.71L1.17 8.85C0.9 8.72 0.89 8.62 0.89 8.62C0.89 8.63 0.9 8.53 1.17 8.4L16.33 1.09C16.59 0.96 17 0.9 17.4 0.9ZM18.65 2.92C18.53 2.93 18.43 3.02 18.44 3.14C18.44 3.23 18.49 3.3 18.56 3.33L24.88 6.38C24.99 6.44 25.12 6.4 25.18 6.29C25.24 6.18 25.19 6.05 25.09 6C25.08 6 25.08 5.99 25.08 5.99L18.76 2.95C18.72 2.93 18.69 2.92 18.65 2.92ZM15.49 4.45C15.37 4.45 15.27 4.55 15.28 4.67C15.28 4.75 15.33 4.82 15.4 4.86L21.72 7.9C21.83 7.96 21.96 7.92 22.02 7.81C22.08 7.71 22.03 7.58 21.93 7.52C21.92 7.52 21.92 7.52 21.92 7.52L15.6 4.47C15.57 4.45 15.53 4.44 15.49 4.45ZM12.33 5.97C12.21 5.97 12.11 6.07 12.12 6.19C12.12 6.27 12.17 6.35 12.24 6.38L18.56 9.43C18.67 9.48 18.8 9.44 18.86 9.33C18.91 9.22 18.87 9.09 18.76 9.04L12.44 5.99C12.41 5.98 12.37 5.97 12.33 5.97ZM6.87 6.12C6.84 6.12 6.8 6.13 6.77 6.15L2.04 8.43C1.93 8.48 1.88 8.61 1.93 8.72C1.96 8.76 1.99 8.8 2.04 8.82L4.25 9.89C4.35 9.94 4.49 9.9 4.55 9.79C4.6 9.69 4.56 9.56 4.45 9.5C4.45 9.5 4.45 9.5 4.44 9.5L2.63 8.62L6.97 6.53C7.08 6.48 7.13 6.35 7.07 6.25C7.04 6.17 6.96 6.12 6.87 6.12ZM13.61 11.55L16.19 12.8L10.82 12.89L13.61 11.55ZM30.38 11.6C30.3 11.6 30.21 11.62 30.14 11.66L13.42 19.6L0.79 13.4C0.53 13.26 0.2 13.36 0.07 13.62C-0.07 13.88 0.03 14.2 0.3 14.33C0.3 14.33 0.3 14.33 0.31 14.34L13.18 20.66C13.33 20.73 13.5 20.73 13.65 20.66L30.61 12.6C30.88 12.48 30.99 12.17 30.87 11.9C30.78 11.72 30.59 11.6 30.38 11.6ZM18.73 15.81C18.69 15.81 18.64 15.82 18.61 15.84L13.35 18.41L8.63 16.05C8.5 15.98 8.34 16.04 8.27 16.17C8.2 16.29 8.26 16.45 8.39 16.52L13.23 18.94C13.3 18.98 13.39 18.98 13.47 18.94L18.85 16.31C18.98 16.25 19.04 16.09 18.97 15.96C18.93 15.87 18.83 15.81 18.73 15.81ZM30.38 16.85C30.3 16.85 30.21 16.87 30.14 16.91L13.42 24.85L0.79 18.64C0.53 18.51 0.2 18.61 0.06 18.86C-0.08 19.12 0.02 19.44 0.29 19.58C0.29 19.58 0.3 19.58 0.31 19.59L13.18 25.91C13.33 25.98 13.5 25.98 13.65 25.91L30.61 17.85C30.88 17.73 30.99 17.42 30.87 17.15C30.78 16.97 30.59 16.85 30.38 16.85ZM18.73 21.06C18.69 21.06 18.64 21.07 18.61 21.09L13.35 23.66L8.63 21.3C8.5 21.23 8.34 21.28 8.27 21.41C8.2 21.54 8.25 21.7 8.38 21.77C8.38 21.77 8.39 21.77 8.39 21.77L13.23 24.19C13.3 24.23 13.39 24.23 13.47 24.19L18.85 21.56C18.98 21.5 19.04 21.34 18.97 21.21C18.93 21.12 18.83 21.06 18.73 21.06Z" />
			</g>
		</g>
	</g>
</svg>