<svg width="164" height="204" viewBox="0 0 164 204" fill="none" xmlns="http://www.w3.org/2000/svg">
  <rect x="41" y="185" width="90" height="15" fill="#21837D"/>
  <path d="M129.927 107L86 129.636V190L149.114 185.473C149.114 185.473 153.914 162.237 151.133 147.745C147.987 131.35 129.927 107 129.927 107Z" fill="#FF6218"/>
  <path d="M101.686 158.667L101.5 158.875L101.314 158.667L93.25 149.654V168.75H109.75V149.654L101.686 158.667ZM109.441 149.25H93.5591L101.5 158.125L109.441 149.25Z" stroke="#3F2823" stroke-width="0.5"/>
  <circle r="10" transform="matrix(-1 0 0 1 145 179.194)" fill="#4FC53E"/>
  <circle r="9.875" transform="matrix(-1 0 0 1 145 179.194)" stroke="black" stroke-opacity="0.25" stroke-width="0.25"/>
  <rect width="1" height="20.3212" transform="matrix(-0.953206 0.302321 0.302321 0.953206 131.856 159)" fill="#694542"/>
  <rect x="-0.0813607" y="0.156941" width="0.75" height="20.0712" transform="matrix(-0.953206 0.302321 0.302321 0.953206 131.65 159.032)" stroke="black" stroke-opacity="0.25" stroke-width="0.25"/>
  <circle r="4" transform="matrix(-1 0 0 1 137 175.194)" fill="#4FC53E"/>
  <circle r="3.875" transform="matrix(-1 0 0 1 137 175.194)" stroke="black" stroke-opacity="0.3" stroke-width="0.25"/>
  <path d="M40.0729 107L84 129.636V190L20.8863 185.473C20.8863 185.473 16.0859 162.237 18.8667 147.745C22.0127 131.35 40.0729 107 40.0729 107Z" fill="#FF6218"/>
  <path d="M68.3137 158.667L68.5 158.875L68.6863 158.667L76.75 149.654V168.75H60.25V149.654L68.3137 158.667ZM60.5591 149.25H76.4409L68.5 158.125L60.5591 149.25Z" stroke="#3F2823" stroke-width="0.5"/>
  <circle cx="25" cy="179.194" r="10" fill="#4FC53E"/>
  <circle cx="25" cy="179.194" r="9.875" stroke="black" stroke-opacity="0.25" stroke-width="0.25"/>
  <rect x="38.1436" y="159" width="1" height="20.3212" transform="rotate(17.5971 38.1436 159)" fill="#694542"/>
  <rect x="38.2249" y="159.157" width="0.75" height="20.0712" transform="rotate(17.5971 38.2249 159.157)" stroke="black" stroke-opacity="0.25" stroke-width="0.25"/>
  <circle cx="33" cy="175.194" r="4" fill="#4FC53E"/>
  <circle cx="33" cy="175.194" r="3.875" stroke="black" stroke-opacity="0.3" stroke-width="0.25"/>
  <path d="M142 69.679C142 105.4 111.469 140.375 84.5 132.854C56.5133 140.876 27 105.4 27 69.679C27 33.9578 52.7436 5 84.5 5C116.256 5 142 33.9578 142 69.679Z" fill="#00AD51"/>
  <path d="M84.5009 133.114C98.0956 136.868 112.532 129.933 123.549 117.649C134.591 105.339 142.25 87.6068 142.25 69.679C142.25 33.8482 116.421 4.75 84.5 4.75C52.5787 4.75 26.75 33.8482 26.75 69.679C26.75 87.6041 34.153 105.461 45.0675 117.836C55.9607 130.186 70.3997 137.12 84.5009 133.114Z" stroke="black" stroke-opacity="0.25" stroke-width="0.5"/>
  <circle cx="84" cy="70" r="60" fill="#FFEBC2"/>
  <path d="M24 15C24 6.71573 30.7157 0 39 0H129C137.284 0 144 6.71573 144 15V50H24V15Z" fill="#4CC53E"/>
  <ellipse cx="140.648" cy="63.9216" rx="11" ry="28" transform="rotate(-27.3888 140.648 63.9216)" fill="#4EC53E"/>
  <path d="M153.643 89.005C155.074 88.2637 156.031 86.8307 156.559 84.9264C157.087 83.0225 157.194 80.6229 156.911 77.8972C156.343 72.4442 154.204 65.6322 150.637 58.7464C147.069 51.8605 142.738 46.1843 138.61 42.5756C136.547 40.7719 134.525 39.4758 132.665 38.809C130.805 38.142 129.083 38.097 127.652 38.8383C126.221 39.5796 125.265 41.0126 124.737 42.9169C124.209 44.8208 124.101 47.2204 124.385 49.9461C124.952 55.3991 127.091 62.2111 130.659 69.0969C134.226 75.9828 138.558 81.659 142.685 85.2676C144.748 87.0714 146.77 88.3675 148.63 89.0343C150.49 89.7013 152.213 89.7463 153.643 89.005Z" stroke="black" stroke-opacity="0.2" stroke-width="0.5"/>
  <ellipse cx="23.8476" cy="63.8885" rx="11" ry="28" transform="rotate(27.9706 23.8476 63.8885)" fill="#4EC53E"/>
  <path d="M10.5978 88.8386C12.021 89.5943 13.7437 89.5668 15.6106 88.9188C17.4771 88.2709 19.5124 86.9954 21.5937 85.2127C25.7575 81.6462 30.1461 76.0142 33.7835 69.1649C37.4208 62.3156 39.6288 55.5257 40.2516 50.0787C40.563 47.3561 40.4797 44.9556 39.9712 43.0464C39.4625 41.1368 38.5205 39.6942 37.0973 38.9384C35.6742 38.1826 33.9515 38.2101 32.0845 38.8582C30.2181 39.5061 28.1827 40.7815 26.1014 42.5643C21.9376 46.1308 17.549 51.7627 13.9117 58.612C10.2744 65.4613 8.06633 72.2512 7.44352 77.6982C7.13222 80.4209 7.21542 82.8214 7.72398 84.7306C8.23265 86.6402 9.17466 88.0828 10.5978 88.8386Z" stroke="black" stroke-opacity="0.2" stroke-width="0.5"/>
  <rect x="33" y="18" width="100" height="32" fill="#00AD50"/>
  <rect x="32.75" y="17.75" width="100.5" height="32.5" stroke="black" stroke-opacity="0.2" stroke-width="0.5"/>
  <rect x="61.9637" y="41" width="2" height="19" transform="rotate(51.9582 61.9637 41)" fill="#373F3D"/>
  <rect x="102" y="42.5703" width="2" height="19" transform="rotate(-51.7355 102 42.5703)" fill="#373F3D"/>
  <ellipse cx="68.1519" cy="74.6613" rx="16" ry="19.5" transform="rotate(27.2446 68.1519 74.6613)" fill="white"/>
  <ellipse rx="16" ry="19.5" transform="matrix(0.88906 -0.45779 -0.45779 -0.88906 102.152 74.6613)" fill="white"/>
  <circle cx="73" cy="73" r="2" fill="#342F33"/>
  <circle cx="96" cy="73" r="2" fill="#342F33"/>
  <path d="M85.562 120.15L70.3535 104.287L100.772 104.289L85.562 120.15Z" fill="#312C30"/>
  <rect x="79.6061" y="104" width="6" height="6" fill="white"/>
  <path d="M86.6061 104H92.6061V110H86.6061V104Z" fill="white"/>
  <path d="M93.6061 104H97.1551C97.1551 104 98.3424 107.196 96.864 108.174C95.7552 108.908 93.6061 110 93.6061 110V104Z" fill="white"/>
  <path d="M73.6094 104H78.6061L78.6061 109.997C78.6061 109.997 76.2384 110.106 74.8586 108.954C73.4788 107.802 73.6094 104 73.6094 104Z" fill="white"/>
  <rect x="84" y="133" width="2" height="57" fill="#3F2823"/>
  <path d="M133 201C133 202.657 111.51 204 85 204C58.4903 204 37 202.657 37 201C37 199.343 58.5 197.5 85 199.5C111 198 133 199.343 133 201Z" fill="#454146"/>
</svg>
