<svg width="163" height="215" viewBox="0 0 163 215" fill="none" xmlns="http://www.w3.org/2000/svg">
  <rect x="23" y="188" width="114" height="24" fill="#356FC2"/>
  <path d="M28.9689 121.976C49.1791 115.949 80 139.807 80 139.807V204L1 182.602C1 182.602 3.74526 129.497 28.9689 121.976Z" fill="#D16E5F"/>
  <path d="M132.031 121.976C111.821 115.949 81 139.807 81 139.807V204L160 182.602C160 182.602 157.255 129.497 132.031 121.976Z" fill="#D16E5F"/>
  <path d="M100.619 131.414C113.922 125.63 127.095 124.262 128.086 126.541C129.827 128.466 121.372 134.281 105.794 141.14C94.9952 148.648 83.1526 151.313 79.9133 147.485C77.0438 143.786 85.2482 135.635 100.619 131.414Z" fill="#FF2042"/>
  <path d="M100.652 131.534L100.661 131.532L100.669 131.529C107.311 128.641 113.919 126.856 118.989 126.077C121.524 125.688 123.669 125.551 125.239 125.652C126.025 125.703 126.66 125.812 127.126 125.976C127.596 126.142 127.869 126.354 127.972 126.591L127.98 126.609L127.994 126.625C128.178 126.828 128.233 127.084 128.146 127.407C128.058 127.738 127.824 128.132 127.433 128.588C126.654 129.498 125.285 130.612 123.366 131.886C119.531 134.432 113.53 137.597 105.744 141.025L105.733 141.03L105.723 141.037C100.334 144.784 94.6878 147.32 89.9898 148.442C87.6405 149.003 85.5337 149.209 83.8175 149.04C82.1006 148.87 80.7911 148.327 80.0105 147.406C79.3323 146.53 79.297 145.381 79.8906 144.058C80.4856 142.732 81.7071 141.249 83.5063 139.741C87.1031 136.728 92.9794 133.641 100.652 131.534Z" stroke="black" stroke-opacity="0.25" stroke-width="0.25"/>
  <path d="M55.7221 133.382C68.9973 139.228 79.5016 143.225 78.5 145.5C77.4983 147.774 65.37 147.465 52.0948 141.619C38.8196 135.773 33.4984 127.274 34.5 125C35.5016 122.726 42.4469 127.536 55.7221 133.382Z" fill="#FF2042"/>
  <path d="M55.6717 133.496C57.8904 134.473 60.0306 135.398 62.0522 136.272C66.0826 138.014 69.6415 139.552 72.4104 140.893C74.4898 141.9 76.1144 142.791 77.1555 143.569C77.6768 143.959 78.0428 144.314 78.2481 144.634C78.4518 144.951 78.4881 145.217 78.3856 145.45C78.279 145.692 78.0143 145.919 77.5723 146.111C77.1334 146.303 76.5381 146.452 75.8018 146.551C74.3299 146.749 72.3159 146.742 69.9135 146.48C65.1099 145.958 58.7714 144.422 52.1452 141.504C45.522 138.588 40.8876 135.011 38.0359 131.886C36.6097 130.323 35.6318 128.875 35.073 127.681C34.7936 127.084 34.6205 126.554 34.5473 126.107C34.4739 125.659 34.5026 125.304 34.6144 125.05C34.7227 124.804 34.9076 124.655 35.1841 124.589C35.4686 124.521 35.852 124.54 36.3445 124.65C37.3288 124.869 38.6941 125.434 40.4554 126.259C41.621 126.805 42.9576 127.464 44.466 128.207C47.5032 129.704 51.2367 131.543 55.6717 133.496Z" stroke="black" stroke-opacity="0.25" stroke-width="0.25"/>
  <circle cx="78" cy="76" r="65" fill="#FFEABF"/>
  <ellipse cx="93.5863" cy="75.6174" rx="15" ry="18.5" transform="rotate(-20.7734 93.5863 75.6174)" fill="white"/>
  <path d="M78.5 11.0006C108.258 11.8029 125.054 26.8167 140 53L17 53C30.6003 24.6124 48.9076 10.2028 78.5 11.0006Z" fill="#3973C4"/>
  <path d="M77.9559 131.15L62.7475 115.287L93.1657 115.289L77.9559 131.15Z" fill="#312C30"/>
  <circle cx="90.5" cy="74.2505" r="2.5" fill="black"/>
  <rect x="72" y="115" width="6" height="6" fill="white"/>
  <path d="M79 115H85V121H79V115Z" fill="white"/>
  <path d="M86 115H89.549C89.549 115 90.7363 118.196 89.2579 119.174C88.1492 119.908 86 121 86 121V115Z" fill="white"/>
  <path d="M66.0033 115H71L71 120.997C71 120.997 68.6323 121.106 67.2525 119.954C65.8727 118.802 66.0033 115 66.0033 115Z" fill="white"/>
  <ellipse cx="61.1679" cy="75.4265" rx="15" ry="18.5" transform="rotate(14.5554 61.1679 75.4265)" fill="white"/>
  <circle cx="65.5" cy="74.2505" r="2.5" fill="black"/>
  <path d="M15 48.5455C15 48.5455 53.6457 42 78.5 42C103.354 42 142 48.5455 142 48.5455V60C92.7424 51.8742 64.9439 51.6893 15 60V48.5455Z" fill="#FF2041"/>
  <rect x="50.6545" y="49" width="1.63474" height="15.7356" transform="rotate(47.7863 50.6545 49)" fill="#5D3C45"/>
  <rect x="101" y="49.2207" width="1.85375" height="12.6897" transform="rotate(-41.1849 101 49.2207)" fill="#5D3C45"/>
  <rect x="71.3932" y="0.95" width="2.21344" height="19.121" fill="#FD2040" stroke="black" stroke-width="0.1"/>
  <rect x="76.0759" y="1.57513" width="2.21344" height="19.121" transform="rotate(28.4146 76.0759 1.57513)" fill="#FD2040" stroke="black" stroke-width="0.1"/>
  <rect x="79.3825" y="3.78299" width="2.21344" height="19.121" transform="rotate(52.2555 79.3825 3.78299)" fill="#FD2040" stroke="black" stroke-width="0.1"/>
  <rect x="82.0601" y="11.6205" width="2.21344" height="19.121" transform="rotate(103.226 82.0601 11.6205)" fill="#FD2040" stroke="black" stroke-width="0.1"/>
  <rect x="80.6787" y="15.5836" width="2.21344" height="19.121" transform="rotate(128.414 80.6787 15.5836)" fill="#FD2040" stroke="black" stroke-width="0.1"/>
  <rect x="77.6565" y="18.6369" width="2.21344" height="19.121" transform="rotate(154.207 77.6565 18.6369)" fill="#FD2040" stroke="black" stroke-width="0.1"/>
  <rect x="81.4591" y="6.99451" width="2.21344" height="19.121" transform="rotate(75.1757 81.4591 6.99451)" fill="#FD2040" stroke="black" stroke-width="0.1"/>
  <rect x="79" y="141" width="2" height="63" fill="#513B3B"/>
  <circle cx="68" cy="158" r="2" fill="#483638"/>
  <circle cx="68" cy="158" r="1.875" stroke="black" stroke-opacity="0.25" stroke-width="0.25"/>
  <circle cx="68" cy="174" r="2" fill="#483638"/>
  <circle cx="68" cy="174" r="1.875" stroke="black" stroke-opacity="0.25" stroke-width="0.25"/>
  <circle cx="67" cy="192" r="2" fill="#483638"/>
  <circle cx="67" cy="192" r="1.875" stroke="black" stroke-opacity="0.25" stroke-width="0.25"/>
  <circle r="10" transform="matrix(-1 0 0 1 152.767 180)" fill="#FF2040"/>
  <circle r="9.875" transform="matrix(-1 0 0 1 152.767 180)" stroke="black" stroke-opacity="0.25" stroke-width="0.25"/>
  <rect width="1" height="20.1545" transform="matrix(-0.953206 0.302321 0.302321 0.953206 139.673 159.965)" fill="#694542"/>
  <rect x="-0.0813607" y="0.156941" width="0.75" height="19.9045" transform="matrix(-0.953206 0.302321 0.302321 0.953206 139.467 159.997)" stroke="black" stroke-opacity="0.25" stroke-width="0.25"/>
  <circle r="4" transform="matrix(-1 0 0 1 144.767 176)" fill="#FF2042"/>
  <circle r="3.875" transform="matrix(-1 0 0 1 144.767 176)" stroke="black" stroke-opacity="0.3" stroke-width="0.25"/>
  <circle cx="10" cy="180" r="10" fill="#FF2040"/>
  <circle cx="10" cy="180" r="9.875" stroke="black" stroke-opacity="0.25" stroke-width="0.25"/>
  <rect x="23.1436" y="159.806" width="1" height="20.3212" transform="rotate(17.5971 23.1436 159.806)" fill="#694542"/>
  <rect x="23.2249" y="159.963" width="0.75" height="20.0712" transform="rotate(17.5971 23.2249 159.963)" stroke="black" stroke-opacity="0.25" stroke-width="0.25"/>
  <circle cx="18" cy="176" r="4" fill="#FF2042"/>
  <circle cx="18" cy="176" r="3.875" stroke="black" stroke-opacity="0.3" stroke-width="0.25"/>
  <path d="M79.4982 211.584C79.4982 211.584 100.456 206.489 114.059 207.314C126.987 208.098 146 215 146 215H15C15 215 30.6258 208.573 41.4314 207.314C56.2874 205.582 79.4982 211.584 79.4982 211.584Z" fill="#322D32"/>
</svg>
