<svg version="1.2" baseProfile="tiny-ps" xmlns="http://www.w3.org/2000/svg" viewBox="0 0 24 22" width="24" height="22">
	<title>Footer</title>
	<style>
		tspan { white-space:pre }
		.shp0 { fill: #e74c3c } 
	</style>
	<g id="Footer">
		<g id="Icons">
			<path id="twitter" class="shp0" d="M21.54 2.06C21.21 2.24 20.2 2.62 19.27 2.71C19.87 2.38 20.76 1.32 20.98 0.47C20.4 0.84 19.07 1.38 18.42 1.38C18.42 1.38 18.42 1.38 18.42 1.38C17.67 0.6 16.62 -0.02 15.45 -0.02C13.18 -0.02 11.53 1.95 11.53 4.23C11.53 4.55 11.56 4.85 11.63 5.15L11.63 5.15C8.55 5.07 5.01 3.36 2.99 0.72C1.74 2.88 2.82 5.44 4.23 6.32C3.75 6.36 2.86 6.26 2.44 5.85C2.41 7.29 3.1 9.19 5.6 9.88C5.12 10.14 4.27 10.07 3.9 10.01C4.03 11.23 5.72 12.81 7.56 12.81C6.91 13.58 4.43 14.97 1.65 14.52C3.53 15.68 5.74 16.35 8.07 16.35C14.69 16.35 20.12 10.96 19.84 4.31C19.84 4.3 19.84 4.29 19.84 4.28C19.84 4.26 19.84 4.25 19.84 4.23C19.84 4.21 19.84 4.19 19.84 4.17C20.44 3.76 20.96 3.02 21.54 2.06Z" />
		</g>
	</g>
</svg>