<svg width="182" height="205" viewBox="0 0 182 205" fill="none" xmlns="http://www.w3.org/2000/svg">
  <!-- Штаны -->
  <rect x="47" y="185" width="88" height="15" fill="#21837D" />
  <!-- Правая часть куртки -->
  <path
    d="M 136.2 126 L 93 143.5 V 190 L 149.5 186.5 C 149.5 186.5 155 170.7 152.5 159.5 C 149.16 144.9 136 124.75 136.2 126 Z"
    fill="#FF6218" />
  <!-- Карман -->
  <path
    d="M 113 162.8 L 112.7 163.2 L 112.3 162.8 L 103.8 153.3 V 173.5 H 121.5 V 153.3 L 113.0 162.8 Z M 120.9 152.5 H 104.4 L 112.7 161.7 L 120.9 152.5 Z"
    stroke="#3F2823" />
  <!-- Рука -->
  <ellipse rx="10.9" ry="10.5" transform="translate(145, 178)" fill="#4FC53E" stroke="#000" stroke-opacity="0.25"
    stroke-width="0.25" />
  <rect width="1" height="24.4" transform="translate(133, 153.5)" fill="#694542" />
  <ellipse rx="4.7" ry="4.5" transform="translate(136.7, 175.7)" fill="#4FC53E" stroke="#000" stroke-opacity="0.25"
    stroke-width="0.25" />
  <!-- Левая часть куртки -->
  <path d="M 48.8 126 L 92 143.5 V 190 L 30.5 185 C 30.5 185 25.2 168.6 27 157.4 C 31 144.8 48.8 126 48.8 126 Z"
    fill="#FF6218" />
  <!-- Карман -->
  <path
    d="M 70.5 163.8 L 70.9 164.2 L 71.2 163.8 L 80.2 154.3 V 174.5 H 61.5 V 154.3 L 70.5 163.8 Z M 62 153.5 H 79.5 L 70.8 162.7 L 62 153.5 Z"
    stroke="#3F2823" />
  <!-- Рука -->
  <ellipse cx="34.9" cy="175.7" rx="10.9" ry="10.5" fill="#4FC53E" stroke="#000" stroke-opacity="0.25"
    stroke-width="0.25" />
  <rect width="1" height="21.4" transform="translate(49.15, 153) rotate(17)" fill="#694542" />
  <ellipse cx="43.3" cy="172.7" rx="4.7" ry="4.5" fill="#4FC53E" stroke="#000" stroke-opacity="0.3"
    stroke-width="0.25" />
  <!-- Шарф -->
  <path
    d="M 156 76.3033C156 115.131 122.814 153.146 93.5 144.972C63.0796 153.691 31 115.131 31 76.3033C31 37.4758 58.9822 6 93.5 6C128.018 6 156 37.4758 156 76.3033Z"
    fill="#00AD51" stroke="#000" stroke-opacity="0.25" stroke-width="0.5" />
  <!-- Голова -->
  <ellipse cx="90.5" cy="75.5" rx="68.5" ry="65.5" fill="#FFEBC2" />
  <!-- Шапка -->
  <path d="M 25 15 C 25 6.7 31.7 0 40 0 H 142 C 150.3 0 157 6.7 157 15 V 50 H 25 V 15 Z" fill="#4CC53E" />
  <ellipse cx="159.1" cy="78.2" rx="11" ry="32.5" transform="rotate(-20 159.112 78.1781)" fill="#4EC53E" />
  <path
    d="M 170.3 108.9 C 171.8 108.4 172.9 107 173.6 104.9 C 174.3 102.9 174.6 100.3 174.5 97.1 C 174.4 90.9 172.8 82.8 169.7 74.3 C 166.6 65.9 162.7 58.6 158.8 53.7 C 156.8 51.3 154.8 49.5 153 48.4 C 151.2 47.2 149.5 46.9 147.9 47.4 C 146.4 48 145.3 49.4 144.6 51.4 C 143.9 53.5 143.6 56.1 143.7 59.2 C 143.8 65.5 145.5 73.6 148.5 82 C 151.6 90.5 155.5 97.7 159.5 102.6 C 161.5 105 163.4 106.9 165.2 108 C 167 109 168.8 109.5 170.3 108.9 Z"
    stroke="#000" stroke-opacity="0.2" stroke-width="0.5" />
  <ellipse cx="23" cy="78.5" rx="11.5" ry="33" transform="rotate(20 22.9813 78.4731)" fill="#4EC53E" />
  <path
    d="M 11.6 109.7 C 13.2 110.3 15 109.9 16.9 108.8 C 18.8 107.7 20.8 105.8 22.8 103.4 C 26.9 98.4 30.9 91 34 82.5 C 37 73.9 38.8 65.7 38.9 59.3 C 38.9 56 38.6 53.4 37.8 51.4 C 37 49 36 47.8 34.4 47.2 C 32.8 46.7 31 47 29 48 C 27 49 25.1 51.1 23.1 53.6 C 19.1 58.5 15 65.8 11.9 74.4 C 8.8 83 7.2 91.3 7.1 97.6 C 7 100.8 7.4 103.5 8.1 105.6 C 8.9 107.7 10 109.1 11.6 109.7 Z"
    stroke="#000" stroke-opacity="0.2" stroke-width="0.5" />
  <path d="M 36 26 H 148 V 60 C 99.1 52 80 52.4 36 60 V 26 Z" fill="#00AD50" stroke="#000" stroke-opacity="0.2"
    stroke-width="0.5" />
  <!-- Брови -->
  <rect x="72" y="46" width="2" height="23" transform="rotate(57 72 46)" fill="#373F3D" />
  <rect x="107.7" y="49.7" width="2" height="22" transform="rotate(-67 107.7 49.7)" fill="#373F3D" />
  <!-- Глаза -->
  <ellipse cx="72.7" cy="79.3" rx="18.5" ry="21.5" transform="rotate(30 72.7 79.3)" fill="#fff" />
  <ellipse rx="18.5" ry="22" transform="translate(110, 78) rotate(-17)" fill="#fff" />
  <circle cx="79.5" cy="80.5" r="2.5" fill="#342F33" />
  <circle cx="101.5" cy="80.5" r="2.5" fill="#342F33" />
  <!-- Рот -->
  <path d="M 93.5 132.1 C 84.9 128.9 80.4 125.3 73.1 116.3 L 113.9 116.3 C 106.7 124.5 102.3 128 93.6 132.1 Z"
    fill="#312C30" />
  <rect x="85.6" y="116" width="8" height="6" fill="#fff" />
  <path d="M 94.9 116 H 103 V 122 H 94 V 116 Z" fill="#fff" />
  <path d="M 104 116 H 109.1 C 109.1 116 110.7 119.2 108.7 120.2 C 107.2 120.9 104.4 122 104.4 122 V 116 Z"
    fill="#fff" />
  <path d="M 77.5 116 H 84.2 L 84.2 122 C 84.2 122 81 122.1 79.2 121 C 77.4 119.8 77.5 116 77.5 116 Z" fill="#fff" />
  <rect x="92" y="145" width="2" height="46" fill="#3F2823" />
  <!-- Обувь -->
  <path
    d="M 142 201 C 142 202.7 119.4 204 91.5 204 C 63.6 204 41 202.7 41 201 C 41 199.3 63.6 197.5 91.5 199.5 C 118.9 198 142 199.3 142 201 Z"
    fill="#454146" />
</svg>